<svg width="556px" height="128px" viewBox="0 0 556 128" version="1.1" xmlns="http://www.w3.org/2000/svg"
     xmlns:xlink="http://www.w3.org/1999/xlink">
    <!-- Generator: Sketch 51 (57462) - http://www.bohemiancoding.com/sketch -->
    <desc>Created with Sketch.</desc>
    <defs></defs>
    <g id="Dufuna-Logo" stroke="none" stroke-width="1" fill="none" fill-rule="evenodd">
        <g id="Dufuna-Logo-Copy" fill="#0A4BCC">
            <path d="M160,23.3846154 L194.338462,23.3846154 C200.08208,23.3846154 205.620486,24.2666578 210.953846,26.0307692 C216.287206,27.7948806 221.005108,30.4820332 225.107692,34.0923077 C229.210277,37.7025822 232.492295,42.2358702 234.953846,47.6923077 C237.415397,53.1487452 238.646154,59.5691938 238.646154,66.9538462 C238.646154,74.4205502 237.230783,80.882024 234.4,86.3384615 C231.569217,91.7948991 227.917971,96.3076745 223.446154,99.8769231 C218.974337,103.446172 214.010284,106.112812 208.553846,107.876923 C203.097409,109.641034 197.743616,110.523077 192.492308,110.523077 L160,110.523077 L160,23.3846154 Z M187.076923,96.4923077 C191.917973,96.4923077 196.492286,95.9384671 200.8,94.8307692 C205.107714,93.7230714 208.861522,92.0000117 212.061538,89.6615385 C215.261554,87.3230652 217.784606,84.2871982 219.630769,80.5538462 C221.476932,76.8204942 222.4,72.2872062 222.4,66.9538462 C222.4,61.7025378 221.579495,57.1897625 219.938462,53.4153846 C218.297428,49.6410068 216.020527,46.5846271 213.107692,44.2461538 C210.194857,41.9076806 206.748738,40.1846209 202.769231,39.0769231 C198.789724,37.9692252 194.420537,37.4153846 189.661538,37.4153846 L175.507692,37.4153846 L175.507692,96.4923077 L187.076923,96.4923077 Z M305.627694,110.523077 L291.596924,110.523077 L291.596924,101.046154 L291.35077,101.046154 C289.955892,104.000015 287.82258,106.564092 284.95077,108.738462 C282.078961,110.912831 278.181564,112 273.258463,112 C269.319982,112 265.976425,111.364109 263.227694,110.092308 C260.478962,108.820506 258.243087,107.097447 256.520001,104.923077 C254.796916,102.748707 253.566159,100.266681 252.827694,97.4769231 C252.089228,94.6871655 251.720001,91.7743742 251.720001,88.7384615 L251.720001,51.4461538 L266.489232,51.4461538 L266.489232,81.3538462 C266.489232,82.99488 266.571282,84.8205028 266.735386,86.8307692 C266.899489,88.8410357 267.330254,90.7281963 268.027694,92.4923077 C268.725133,94.2564191 269.791789,95.7333274 271.227694,96.9230769 C272.663598,98.1128265 274.694347,98.7076923 277.320001,98.7076923 C279.781552,98.7076923 281.853326,98.29744 283.535386,97.4769231 C285.217446,96.6564062 286.612303,95.5487249 287.720001,94.1538462 C288.827699,92.7589674 289.627691,91.1589834 290.120001,89.3538462 C290.612311,87.5487089 290.858463,85.6615483 290.858463,83.6923077 L290.858463,51.4461538 L305.627694,51.4461538 L305.627694,110.523077 Z M327.404617,64 L315.220001,64 L315.220001,51.4461538 L327.404617,51.4461538 L327.404617,43.0769231 C327.404617,38.9743385 327.691793,35.2615551 328.266155,31.9384615 C328.840517,28.615368 329.927686,25.7641145 331.527694,23.3846154 C333.127702,21.0051163 335.363577,19.1794935 338.235386,17.9076923 C341.107195,16.6358911 344.840491,16 349.435386,16 C352.799505,16 355.917423,16.2871766 358.789232,16.8615385 L357.804617,29.4153846 C356.737945,29.1692295 355.712314,28.9641034 354.727694,28.8 C353.743073,28.6358966 352.717442,28.5538462 351.65077,28.5538462 C349.599478,28.5538462 347.958469,28.882048 346.727694,29.5384615 C345.496918,30.1948751 344.532825,31.0769175 343.835386,32.1846154 C343.137946,33.2923132 342.686669,34.584608 342.48154,36.0615385 C342.27641,37.5384689 342.173847,39.0974277 342.173847,40.7384615 L342.173847,51.4461538 L355.835386,51.4461538 L355.835386,64 L342.173847,64 L342.173847,110.523077 L327.404617,110.523077 L327.404617,64 Z M419.167702,110.523077 L405.136933,110.523077 L405.136933,101.046154 L404.890779,101.046154 C403.4959,104.000015 401.362588,106.564092 398.490779,108.738462 C395.61897,110.912831 391.721573,112 386.798471,112 C382.85999,112 379.516434,111.364109 376.767702,110.092308 C374.01897,108.820506 371.783095,107.097447 370.06001,104.923077 C368.336924,102.748707 367.106167,100.266681 366.367702,97.4769231 C365.629237,94.6871655 365.26001,91.7743742 365.26001,88.7384615 L365.26001,51.4461538 L380.029241,51.4461538 L380.029241,81.3538462 C380.029241,82.99488 380.111291,84.8205028 380.275394,86.8307692 C380.439498,88.8410357 380.870263,90.7281963 381.567702,92.4923077 C382.265141,94.2564191 383.331797,95.7333274 384.767702,96.9230769 C386.203607,98.1128265 388.234356,98.7076923 390.86001,98.7076923 C393.321561,98.7076923 395.393335,98.29744 397.075394,97.4769231 C398.757454,96.6564062 400.152312,95.5487249 401.26001,94.1538462 C402.367708,92.7589674 403.1677,91.1589834 403.66001,89.3538462 C404.15232,87.5487089 404.398471,85.6615483 404.398471,83.6923077 L404.398471,51.4461538 L419.167702,51.4461538 L419.167702,110.523077 Z M435.480011,51.4461538 L449.51078,51.4461538 L449.51078,60.9230769 L449.756934,60.9230769 C451.151813,57.969216 453.285125,55.4051391 456.156934,53.2307692 C459.028743,51.0563994 462.92614,49.9692308 467.849242,49.9692308 C471.787723,49.9692308 475.131279,50.6256345 477.880011,51.9384615 C480.628743,53.2512886 482.864618,54.9743483 484.587703,57.1076923 C486.310789,59.2410363 487.541546,61.7025502 488.280011,64.4923077 C489.018476,67.2820652 489.387703,70.1948566 489.387703,73.2307692 L489.387703,110.523077 L474.618473,110.523077 L474.618473,80.6153846 C474.618473,78.9743508 474.536422,77.148728 474.372319,75.1384615 C474.208215,73.1281951 473.77745,71.2410345 473.080011,69.4769231 C472.382572,67.7128117 471.295403,66.2359034 469.818473,65.0461538 C468.341542,63.8564043 466.331306,63.2615385 463.787703,63.2615385 C461.326153,63.2615385 459.254378,63.6717908 457.572319,64.4923077 C455.890259,65.3128246 454.495401,66.4205058 453.387703,67.8153846 C452.280005,69.2102634 451.480013,70.8102474 450.987703,72.6153846 C450.495393,74.4205218 450.249242,76.3076825 450.249242,78.2769231 L450.249242,110.523077 L435.480011,110.523077 L435.480011,51.4461538 Z M542.701565,102.4 L542.332335,102.4 C540.198991,105.764119 537.491325,108.205121 534.209258,109.723077 C530.92719,111.241033 527.31697,112 523.378488,112 C520.670783,112 518.024655,111.630773 515.440027,110.892308 C512.855399,110.153842 510.557986,109.046161 508.547719,107.569231 C506.537453,106.0923 504.916956,104.246165 503.686181,102.030769 C502.455405,99.8153735 501.840027,97.230784 501.840027,94.2769231 C501.840027,91.0769071 502.41438,88.3487292 503.563104,86.0923077 C504.711827,83.8358862 506.250274,81.9487255 508.178488,80.4307692 C510.106703,78.9128129 512.342578,77.7025686 514.886181,76.8 C517.429783,75.8974314 520.075911,75.2205151 522.824642,74.7692308 C525.573374,74.3179465 528.342577,74.0307698 531.132335,73.9076923 C533.922092,73.7846148 536.547707,73.7230769 539.009258,73.7230769 L542.701565,73.7230769 L542.701565,72.1230769 C542.701565,68.4307508 541.429783,65.6615477 538.886181,63.8153846 C536.342578,61.9692215 533.101585,61.0461538 529.163104,61.0461538 C526.045139,61.0461538 523.132348,61.5999945 520.424642,62.7076923 C517.716936,63.8153902 515.378498,65.3128111 513.409258,67.2 L505.655411,59.4461538 C508.937479,56.0820345 512.773338,53.6615458 517.163104,52.1846154 C521.552869,50.7076849 526.086157,49.9692308 530.763104,49.9692308 C534.94774,49.9692308 538.47591,50.4410209 541.347719,51.3846154 C544.219528,52.3282098 546.598992,53.5384542 548.486181,55.0153846 C550.37337,56.4923151 551.829765,58.1948622 552.855411,60.1230769 C553.881058,62.0512917 554.619512,63.9999902 555.070796,65.9692308 C555.52208,67.9384714 555.788744,69.8461446 555.870796,71.6923077 C555.952848,73.5384708 555.993873,75.1589674 555.993873,76.5538462 L555.993873,110.523077 L542.701565,110.523077 L542.701565,102.4 Z M543.384615,84.0615385 L543.384615,87.3846154 C543.384615,91.5692517 542.174371,94.8717828 539.753846,97.2923077 C537.333321,99.7128326 533.579513,100.923077 528.492308,100.923077 C527.261532,100.923077 526.030775,100.779489 524.8,100.492308 C523.569225,100.205127 522.461543,99.7333366 521.476923,99.0769231 C520.492303,98.4205095 519.692311,97.6205175 519.076923,96.6769231 C518.461535,95.7333286 518.153846,94.5641095 518.153846,93.1692308 C518.153846,91.0358868 518.933326,89.3743649 520.492308,88.1846154 C522.05129,86.9948658 523.958963,86.0923108 526.215385,85.4769231 C528.471806,84.8615354 530.871782,84.4717957 533.415385,84.3076923 C535.958987,84.1435889 538.2564,84.0615385 540.307692,84.0615385 L543.384615,84.0615385 Z M26.48275,128 C11.85775,128 0,116.14225 0,101.51725 L0,26.48275 C0,11.85775 11.85775,0 26.48275,0 L101.51725,0 C116.14225,0 128,11.85775 128,26.48275 L128,101.51725 C128,116.14225 116.14225,128 101.51725,128 L26.48275,128 Z M46.2970902,88.56125 C46.8620902,88.56125 47.4268402,88.345 47.8573402,87.9145 C48.7203402,87.05175 48.7203402,85.657 47.8573402,84.794 L27.3330902,64.272 L47.8373402,43.76775 C48.7003402,42.907 48.7003402,41.51025 47.8373402,40.64725 C46.9765902,39.78425 45.5798402,39.78425 44.7168402,40.64725 L22.6323402,62.7295 C22.0010902,63.36275 21.8313402,64.3095 22.1733402,65.135 C22.3145902,65.47275 22.5308402,65.75975 22.8045902,65.98475 L44.7368402,87.91475 C45.1670902,88.345 45.7320902,88.56125 46.2970902,88.56125 Z M82.2258125,88.56125 C82.7908125,88.56125 83.3558125,88.345 83.7860625,87.91475 L105.870562,65.8325 C106.501812,65.20125 106.671562,64.2525 106.329562,63.427 C106.188312,63.08925 105.972062,62.8025 105.698312,62.5795 L83.7660625,40.64725 C82.9053125,39.78425 81.5085625,39.78425 80.6455625,40.64725 C79.7848125,41.51 79.7848125,42.907 80.6455625,43.76775 L101.169812,64.28975 L80.6655625,84.794 C79.8025625,85.65675 79.8025625,87.0515 80.6655625,87.9145 C81.0958125,88.345 81.6608125,88.56125 82.2258125,88.56125 Z M58.207278,88.5553256 C59.158528,88.5553256 60.034528,87.9373256 60.321528,86.9818256 L73.562778,42.8438256 C73.911528,41.6765756 73.249528,40.4450756 72.082028,40.0963256 C70.910278,39.7385756 69.683278,40.4095756 69.334528,41.5748256 L56.093028,85.7128256 C55.744278,86.8803256 56.406278,88.1115756 57.573778,88.4625756 C57.785778,88.5243256 57.997528,88.5553256 58.207278,88.5553256 Z"
                  id="Logo"></path>
        </g>
    </g>
</svg>
